<?xml version="1.0" encoding="UTF-8" standalone="no"?>
<!DOCTYPE svg PUBLIC "-//W3C//DTD SVG 1.1//EN"
 "http://www.w3.org/Graphics/SVG/1.1/DTD/svg11.dtd">
<!-- Generated by graphviz version 2.40.1 (20161225.0304)
 -->
<!-- Title: G Pages: 1 -->
<svg width="478pt" height="376pt"
 viewBox="0.00 0.00 478.00 376.00" xmlns="http://www.w3.org/2000/svg" xmlns:xlink="http://www.w3.org/1999/xlink">
<g id="graph0" class="graph" transform="scale(1 1) rotate(0) translate(4 372)">
<title>G</title>
<polygon fill="#ffffff" stroke="transparent" points="-4,4 -4,-372 474,-372 474,4 -4,4"/>
<!-- A0 -->
<g id="node1" class="node">
<title>A0</title>
<polygon fill="#fff8dc" stroke="#000000" points="158.9659,-348 47.0341,-348 47.0341,-304 164.9659,-304 164.9659,-342 158.9659,-348"/>
<polyline fill="none" stroke="#000000" points="158.9659,-348 158.9659,-342 "/>
<polyline fill="none" stroke="#000000" points="164.9659,-342 158.9659,-342 "/>
<text text-anchor="middle" x="106" y="-335" font-family="Helvetica,sans-Serif" font-size="10.00" fill="#000000">Generated by yUML</text>
<text text-anchor="middle" x="106" y="-323" font-family="Helvetica,sans-Serif" font-size="10.00" fill="#000000">plugin in Visual</text>
<text text-anchor="middle" x="106" y="-311" font-family="Helvetica,sans-Serif" font-size="10.00" fill="#000000">Studio Code</text>
</g>
<!-- A1 -->
<g id="node2" class="node">
<title>A1</title>
<polygon fill="none" stroke="#000000" points="186,-336 186,-368 234,-368 234,-336 186,-336"/>
<text text-anchor="start" x="201.1065" y="-349" font-family="Helvetica,sans-Serif" font-size="10.00" fill="#000000">App</text>
<polygon fill="none" stroke="#000000" points="186,-316 186,-336 234,-336 234,-316 186,-316"/>
<polygon fill="none" stroke="#000000" points="186,-284 186,-316 234,-316 234,-284 186,-284"/>
<text text-anchor="start" x="195.553" y="-297" font-family="Helvetica,sans-Serif" font-size="10.00" fill="#000000">render</text>
</g>
<!-- A2 -->
<g id="node3" class="node">
<title>A2</title>
<polygon fill="none" stroke="#000000" points="154,-202 154,-234 266,-234 266,-202 154,-202"/>
<text text-anchor="start" x="199.997" y="-215" font-family="Helvetica,sans-Serif" font-size="10.00" fill="#000000">Blog</text>
<polygon fill="none" stroke="#000000" points="154,-170 154,-202 266,-202 266,-170 154,-170"/>
<text text-anchor="start" x="185.824" y="-183" font-family="Helvetica,sans-Serif" font-size="10.00" fill="#000000">state:posts</text>
<polygon fill="none" stroke="#000000" points="154,-126 154,-170 266,-170 266,-126 154,-126"/>
<text text-anchor="start" x="195.553" y="-151" font-family="Helvetica,sans-Serif" font-size="10.00" fill="#000000">render</text>
<text text-anchor="start" x="163.878" y="-139" font-family="Helvetica,sans-Serif" font-size="10.00" fill="#000000">componentDidMount</text>
</g>
<!-- A1&#45;&gt;A2 -->
<g id="edge1" class="edge">
<title>A1&#45;&gt;A2</title>
<path fill="none" stroke="#000000" d="M210,-283.7708C210,-271.4224 210,-257.6361 210,-244.2483"/>
<polygon fill="#000000" stroke="#000000" points="210,-234.1186 214.5001,-244.1186 210,-239.1186 210.0001,-244.1186 210.0001,-244.1186 210.0001,-244.1186 210,-239.1186 205.5001,-244.1187 210,-234.1186 210,-234.1186"/>
</g>
<!-- A3 -->
<g id="node4" class="node">
<title>A3</title>
<polygon fill="none" stroke="#000000" points="0,-44 0,-76 76,-76 76,-44 0,-44"/>
<text text-anchor="start" x="27.9965" y="-57" font-family="Helvetica,sans-Serif" font-size="10.00" fill="#000000">Post</text>
<polygon fill="none" stroke="#000000" points="0,0 0,-44 76,-44 76,0 0,0"/>
<text text-anchor="start" x="16.33" y="-25" font-family="Helvetica,sans-Serif" font-size="10.00" fill="#000000">props.title</text>
<text text-anchor="start" x="9.9355" y="-13" font-family="Helvetica,sans-Serif" font-size="10.00" fill="#000000">props.author</text>
</g>
<!-- A2&#45;&gt;A3 -->
<g id="edge2" class="edge">
<title>A2&#45;&gt;A3</title>
<path fill="none" stroke="#000000" d="M153.6808,-133.5039C131.1801,-114.9278 105.5899,-93.801 84.2089,-76.1492"/>
<polygon fill="#000000" stroke="#000000" points="76.2358,-69.5667 86.8123,-72.4631 80.0916,-72.75 83.9473,-75.9333 83.9473,-75.9333 83.9473,-75.9333 80.0916,-72.75 81.0824,-79.4035 76.2358,-69.5667 76.2358,-69.5667"/>
<text text-anchor="middle" x="95.595" y="-71.5887" font-family="Helvetica,sans-Serif" font-size="10.00" fill="#000000">key, title, author</text>
</g>
<!-- A4 -->
<g id="node5" class="node">
<title>A4</title>
<polygon fill="none" stroke="#000000" points="158.1131,-56 93.8869,-56 93.8869,-20 158.1131,-20 158.1131,-56"/>
<text text-anchor="middle" x="126" y="-35" font-family="Helvetica,sans-Serif" font-size="10.00" fill="#000000">FullPost</text>
</g>
<!-- A2&#45;&gt;A4 -->
<g id="edge3" class="edge">
<title>A2&#45;&gt;A4</title>
<path fill="none" stroke="#000000" d="M178.0036,-125.9108C165.72,-105.1457 152.2243,-82.3316 142.06,-65.1491"/>
<polygon fill="#000000" stroke="#000000" points="136.7848,-56.2314 145.7493,-62.5472 139.3305,-60.5349 141.8762,-64.8383 141.8762,-64.8383 141.8762,-64.8383 139.3305,-60.5349 138.0031,-67.1295 136.7848,-56.2314 136.7848,-56.2314"/>
</g>
<!-- A5 -->
<g id="node6" class="node">
<title>A5</title>
<polygon fill="none" stroke="#000000" points="244.004,-56 175.996,-56 175.996,-20 244.004,-20 244.004,-56"/>
<text text-anchor="middle" x="210" y="-35" font-family="Helvetica,sans-Serif" font-size="10.00" fill="#000000">NewPost</text>
</g>
<!-- A2&#45;&gt;A5 -->
<g id="edge4" class="edge">
<title>A2&#45;&gt;A5</title>
<path fill="none" stroke="#000000" d="M210,-125.9108C210,-105.7225 210,-83.5975 210,-66.5939"/>
<polygon fill="#000000" stroke="#000000" points="210,-56.2314 214.5001,-66.2314 210,-61.2314 210.0001,-66.2314 210.0001,-66.2314 210.0001,-66.2314 210,-61.2314 205.5001,-66.2315 210,-56.2314 210,-56.2314"/>
</g>
<!-- A6 -->
<g id="node7" class="node">
<title>A6</title>
<polygon fill="none" stroke="#000000" points="262,-38 262,-70 470,-70 470,-38 262,-38"/>
<text text-anchor="start" x="342.1095" y="-51" font-family="Helvetica,sans-Serif" font-size="10.00" fill="#000000">Axios.get()</text>
<polygon fill="none" stroke="#000000" points="262,-6 262,-38 470,-38 470,-6 262,-6"/>
<text text-anchor="start" x="271.807" y="-19" font-family="Helvetica,sans-Serif" font-size="10.00" fill="#000000">https://jsonplaceholder.typicode.com/posts</text>
</g>
<!-- A2&#45;&gt;A6 -->
<g id="edge5" class="edge">
<title>A2&#45;&gt;A6</title>
<path fill="none" stroke="#000000" d="M262.8451,-125.9108C280.4257,-109.5985 299.8959,-92.0218 317.1651,-76.904"/>
<polygon fill="#000000" stroke="#000000" points="324.9301,-70.1444 320.3423,-80.1044 321.1588,-73.4273 317.3876,-76.7103 317.3876,-76.7103 317.3876,-76.7103 321.1588,-73.4273 314.4329,-73.3162 324.9301,-70.1444 324.9301,-70.1444"/>
</g>
<!-- A6&#45;&gt;A2 -->
<g id="edge6" class="edge">
<title>A6&#45;&gt;A2</title>
<path fill="none" stroke="#000000" d="M336.268,-70.3122C318.5208,-87.3452 295.3658,-108.6546 273.714,-127.9494"/>
<polygon fill="#000000" stroke="#000000" points="266.1295,-134.6799 270.6223,-124.6766 269.8693,-131.3612 273.6091,-128.0424 273.6091,-128.0424 273.6091,-128.0424 269.8693,-131.3612 276.596,-131.4083 266.1295,-134.6799 266.1295,-134.6799"/>
<text text-anchor="middle" x="274.0769" y="-113.3267" font-family="Helvetica,sans-Serif" font-size="10.00" fill="#000000">slice(0,4)</text>
<text text-anchor="middle" x="328.9952" y="-85.943" font-family="Helvetica,sans-Serif" font-size="10.00" fill="#000000">.</text>
</g>
<!-- A7 -->
<g id="node8" class="node">
<title>A7</title>
<polygon fill="#fff8dc" stroke="#000000" points="364.7242,-354 255.2758,-354 255.2758,-298 370.7242,-298 370.7242,-348 364.7242,-354"/>
<polyline fill="none" stroke="#000000" points="364.7242,-354 364.7242,-348 "/>
<polyline fill="none" stroke="#000000" points="370.7242,-348 364.7242,-348 "/>
<text text-anchor="middle" x="313" y="-341" font-family="Helvetica,sans-Serif" font-size="10.00" fill="#000000">Normally you would</text>
<text text-anchor="middle" x="313" y="-329" font-family="Helvetica,sans-Serif" font-size="10.00" fill="#000000">limit the amount of</text>
<text text-anchor="middle" x="313" y="-317" font-family="Helvetica,sans-Serif" font-size="10.00" fill="#000000">posts on the</text>
<text text-anchor="middle" x="313" y="-305" font-family="Helvetica,sans-Serif" font-size="10.00" fill="#000000">back&#45;end</text>
</g>
</g>
</svg>
